<svg width="595" height="88" viewBox="0 0 595 88" fill="none" xmlns="http://www.w3.org/2000/svg">
<path d="M532 17L0 45.5V74.5L511.5 88L532 17Z" fill="#90EE90"/>
<mask id="path-2-outside-1_2096_2" maskUnits="userSpaceOnUse" x="13" y="3" width="509" height="75" fill="black">
<rect fill="white" x="13" y="3" width="509" height="75"/>
<path d="M45.353 6.82608C53.9235 6.82608 60.9681 8.57912 66.487 12.0852C72.0058 15.5264 74.8302 20.6556 74.96 27.473V28.6417H54.8V28.2522C54.8 26.3043 54.0858 24.6812 52.6574 23.3826C51.229 22.0841 49.0539 21.4348 46.1322 21.4348C43.2754 21.4348 41.0678 21.8568 39.5096 22.7009C38.0162 23.5449 37.2696 24.5838 37.2696 25.8174C37.2696 27.5704 38.3084 28.869 40.3861 29.713C42.4638 30.5571 45.8075 31.4336 50.4174 32.3426C55.8064 33.4464 60.2215 34.6151 63.6626 35.8487C67.1687 37.0174 70.2203 38.9652 72.8174 41.6922C75.4145 44.4191 76.7455 48.12 76.8104 52.7948C76.8104 60.7159 74.116 66.5919 68.727 70.4226C63.4029 74.2533 56.2609 76.1687 47.3009 76.1687C36.8475 76.1687 28.6991 74.4157 22.8557 70.9096C17.0771 67.4035 14.1878 61.2029 14.1878 52.3078H34.5426C34.5426 55.6841 35.4191 57.9565 37.1722 59.1252C38.9252 60.229 41.6522 60.7809 45.353 60.7809C48.08 60.7809 50.32 60.4887 52.073 59.9043C53.891 59.32 54.8 58.1188 54.8 56.3009C54.8 54.6777 53.7936 53.4765 51.7809 52.6974C49.833 51.8533 46.6191 50.9768 42.1391 50.0678C36.6852 48.8991 32.1728 47.698 28.6017 46.4643C25.0307 45.1658 21.9142 43.0556 19.2522 40.1339C16.5901 37.2122 15.2591 33.2516 15.2591 28.2522C15.2591 20.9154 18.0835 15.5264 23.7322 12.0852C29.4458 8.57912 36.6528 6.82608 45.353 6.82608ZM111.548 22.4087C119.404 22.4087 125.8 23.7397 130.734 26.4017C135.669 28.9988 138.136 33.2516 138.136 39.16V59.2226C138.136 60.3264 138.395 61.2354 138.915 61.9496C139.434 62.6638 140.213 63.0209 141.252 63.0209H144.758V74.2209C144.564 74.3507 144.044 74.578 143.2 74.9026C142.421 75.1623 141.285 75.422 139.791 75.6817C138.298 76.0064 136.578 76.1687 134.63 76.1687C130.864 76.1687 127.747 75.6168 125.28 74.513C122.878 73.3443 121.222 71.7536 120.313 69.7409C117.846 71.6887 115.086 73.247 112.035 74.4157C108.983 75.5843 105.412 76.1687 101.322 76.1687C89.2453 76.1687 83.2071 71.3641 83.2071 61.7548C83.2071 56.7554 84.5381 52.9571 87.2001 50.36C89.9271 47.698 93.8227 45.88 98.8871 44.9061C103.951 43.9322 110.574 43.4452 118.755 43.4452V40.913C118.755 38.9003 118.041 37.3745 116.612 36.3356C115.249 35.2968 113.463 34.7774 111.256 34.7774C109.243 34.7774 107.49 35.1345 105.997 35.8487C104.568 36.5629 103.854 37.6991 103.854 39.2574V39.647H84.7653C84.7004 39.3223 84.6679 38.8678 84.6679 38.2835C84.6679 33.4139 86.9729 29.5507 91.5827 26.6939C96.2575 23.8371 102.913 22.4087 111.548 22.4087ZM118.755 52.6C113.236 52.6 109.146 53.2168 106.484 54.4504C103.886 55.6191 102.588 57.2099 102.588 59.2226C102.588 62.469 104.795 64.0922 109.211 64.0922C111.743 64.0922 113.95 63.4104 115.833 62.047C117.781 60.6835 118.755 58.9954 118.755 56.9826V52.6ZM168.326 17.3443L177.384 4.3913H196.083L196.278 4.78086L180.792 17.3443H168.326ZM187.123 67.2087C185.11 70.0006 182.448 72.2081 179.137 73.8313C175.89 75.3896 172.449 76.1687 168.813 76.1687C162.84 76.1687 158.36 74.513 155.373 71.2017C152.387 67.8904 150.893 63.1183 150.893 56.8852V23.5774H170.274V54.5478C170.274 56.7554 170.826 58.5409 171.93 59.9043C173.098 61.2029 174.722 61.8522 176.799 61.8522C179.202 61.8522 181.15 61.073 182.643 59.5148C184.136 57.9565 184.883 56.0412 184.883 53.7687V23.5774H204.264V75H188.389L187.123 67.2087ZM253.446 75L251.79 67.6957C248.024 73.3443 242.57 76.1687 235.428 76.1687C228.481 76.1687 223.124 73.8962 219.359 69.3513C215.593 64.8064 213.71 58.0864 213.71 49.1913C213.71 40.3612 215.593 33.7061 219.359 29.2261C223.124 24.6812 228.481 22.4087 235.428 22.4087C241.337 22.4087 246.141 24.389 249.842 28.3496V4.3913H269.223V75H253.446ZM241.466 36.7252C235.883 36.7252 233.091 40.069 233.091 46.7565V51.9183C233.091 58.5409 235.883 61.8522 241.466 61.8522C244.323 61.8522 246.466 60.8458 247.894 58.833C249.323 56.8203 250.037 54.1907 250.037 50.9443V47.7304C250.037 44.4841 249.323 41.8545 247.894 39.8417C246.466 37.7641 244.323 36.7252 241.466 36.7252ZM306.426 22.4087C314.282 22.4087 320.677 23.7397 325.612 26.4017C330.546 28.9988 333.013 33.2516 333.013 39.16V59.2226C333.013 60.3264 333.273 61.2354 333.793 61.9496C334.312 62.6638 335.091 63.0209 336.13 63.0209H339.636V74.2209C339.441 74.3507 338.922 74.578 338.078 74.9026C337.299 75.1623 336.162 75.422 334.669 75.6817C333.176 76.0064 331.455 76.1687 329.507 76.1687C325.742 76.1687 322.625 75.6168 320.158 74.513C317.756 73.3443 316.1 71.7536 315.191 69.7409C312.724 71.6887 309.964 73.247 306.913 74.4157C303.861 75.5843 300.29 76.1687 296.2 76.1687C284.123 76.1687 278.085 71.3641 278.085 61.7548C278.085 56.7554 279.416 52.9571 282.078 50.36C284.805 47.698 288.7 45.88 293.765 44.9061C298.829 43.9322 305.452 43.4452 313.633 43.4452V40.913C313.633 38.9003 312.918 37.3745 311.49 36.3356C310.127 35.2968 308.341 34.7774 306.133 34.7774C304.121 34.7774 302.368 35.1345 300.874 35.8487C299.446 36.5629 298.732 37.6991 298.732 39.2574V39.647H279.643C279.578 39.3223 279.546 38.8678 279.546 38.2835C279.546 33.4139 281.851 29.5507 286.46 26.6939C291.135 23.8371 297.79 22.4087 306.426 22.4087ZM313.633 52.6C308.114 52.6 304.023 53.2168 301.361 54.4504C298.764 55.6191 297.466 57.2099 297.466 59.2226C297.466 62.469 299.673 64.0922 304.088 64.0922C306.62 64.0922 308.828 63.4104 310.711 62.047C312.659 60.6835 313.633 58.9954 313.633 56.9826V52.6ZM357.984 75L338.505 23.5774H359.347L368.794 55.6191H369.476L378.923 23.5774H398.012L378.339 75H357.984ZM427.907 22.4087C437.321 22.4087 444.496 24.6162 449.43 29.0313C454.43 33.4464 456.93 40.1988 456.93 49.2887V52.6H418.363C418.363 56.3009 419.174 59.0928 420.797 60.9757C422.485 62.8585 425.115 63.8 428.686 63.8C431.932 63.8 434.302 63.1183 435.796 61.7548C437.354 60.3913 438.133 58.5733 438.133 56.3009H456.93C456.93 62.5339 454.56 67.4035 449.82 70.9096C445.08 74.4157 438.165 76.1687 429.076 76.1687C419.531 76.1687 412.13 73.9612 406.87 69.5461C401.611 65.0661 398.982 58.3136 398.982 49.2887C398.982 40.4585 401.546 33.771 406.676 29.2261C411.805 24.6812 418.882 22.4087 427.907 22.4087ZM428.686 34.7774C422.583 34.7774 419.174 37.6667 418.46 43.4452H437.354C437.354 40.7832 436.575 38.673 435.016 37.1148C433.523 35.5565 431.413 34.7774 428.686 34.7774ZM466.96 75V4.3913H486.341V75H466.96ZM502.801 51.0417L497.444 7.99478H520.721L515.169 51.0417H502.801ZM499.392 75V56.9826H518.676V75H499.392Z"/>
</mask>
<path d="M66.487 12.0852L65.9507 12.9293L65.9579 12.9338L66.487 12.0852ZM74.96 27.473H75.96V27.4635L75.9598 27.454L74.96 27.473ZM74.96 28.6417V29.6417H75.96V28.6417H74.96ZM54.8 28.6417H53.8V29.6417H54.8V28.6417ZM52.6574 23.3826L53.3301 22.6427L53.3301 22.6427L52.6574 23.3826ZM39.5096 22.7009L39.0333 21.8216L39.0254 21.8259L39.0175 21.8303L39.5096 22.7009ZM40.3861 29.713L40.7625 28.7866L40.7625 28.7866L40.3861 29.713ZM50.4174 32.3426L50.6181 31.3629L50.6109 31.3615L50.4174 32.3426ZM63.6626 35.8487L63.3252 36.79L63.3357 36.7938L63.3464 36.7974L63.6626 35.8487ZM76.8104 52.7948H77.8105L77.8103 52.7809L76.8104 52.7948ZM68.727 70.4226L68.1476 69.6075L68.1429 69.6109L68.727 70.4226ZM22.8557 70.9096L22.3369 71.7645L22.3412 71.7671L22.8557 70.9096ZM14.1878 52.3078V51.3078H13.1878V52.3078H14.1878ZM34.5426 52.3078H35.5426V51.3078H34.5426V52.3078ZM37.1722 59.1252L36.6175 59.9573L36.6283 59.9645L36.6394 59.9714L37.1722 59.1252ZM52.073 59.9043L51.767 58.9523L51.7568 58.9557L52.073 59.9043ZM51.7809 52.6974L51.3833 53.6149L51.4014 53.6228L51.4199 53.63L51.7809 52.6974ZM42.1391 50.0678L41.9296 51.0457L41.9403 51.0479L42.1391 50.0678ZM28.6017 46.4643L28.26 47.4041L28.2676 47.4069L28.2752 47.4095L28.6017 46.4643ZM19.2522 40.1339L18.513 40.8074L18.513 40.8074L19.2522 40.1339ZM23.7322 12.0852L24.2524 12.9392L24.2552 12.9375L23.7322 12.0852ZM45.353 7.82608C53.7915 7.82608 60.6349 9.55218 65.9507 12.9293L67.0232 11.2411C61.3013 7.60606 54.0555 5.82608 45.353 5.82608V7.82608ZM65.9579 12.9338C71.1732 16.1857 73.8364 20.9934 73.9602 27.4921L75.9598 27.454C75.8239 20.3179 72.8384 14.867 67.0161 11.2367L65.9579 12.9338ZM73.96 27.473V28.6417H75.96V27.473H73.96ZM74.96 27.6417H54.8V29.6417H74.96V27.6417ZM55.8 28.6417V28.2522H53.8V28.6417H55.8ZM55.8 28.2522C55.8 26.0255 54.9691 24.1327 53.3301 22.6427L51.9847 24.1225C53.2025 25.2296 53.8 26.5832 53.8 28.2522H55.8ZM53.3301 22.6427C51.6428 21.1088 49.1786 20.4348 46.1322 20.4348V22.4348C48.9292 22.4348 50.8152 23.0593 51.9847 24.1225L53.3301 22.6427ZM46.1322 20.4348C43.2001 20.4348 40.8011 20.864 39.0333 21.8216L39.9859 23.5802C41.3346 22.8496 43.3506 22.4348 46.1322 22.4348V20.4348ZM39.0175 21.8303C37.3482 22.7738 36.2696 24.0887 36.2696 25.8174H38.2696C38.2696 25.0788 38.6843 24.316 40.0016 23.5714L39.0175 21.8303ZM36.2696 25.8174C36.2696 26.9077 36.5985 27.8941 37.2678 28.7308C37.9249 29.5521 38.8655 30.1747 40.0097 30.6395L40.7625 28.7866C39.829 28.4074 39.2114 27.9586 38.8296 27.4814C38.4601 27.0195 38.2696 26.4801 38.2696 25.8174H36.2696ZM40.0097 30.6395C42.1811 31.5216 45.604 32.4127 50.2239 33.3237L50.6109 31.3615C46.0111 30.4545 42.7464 29.5926 40.7625 28.7866L40.0097 30.6395ZM50.2167 33.3223C55.58 34.4208 59.9449 35.5782 63.3252 36.79L64.0001 34.9074C60.498 33.6519 56.0328 32.472 50.6181 31.3629L50.2167 33.3223ZM63.3464 36.7974C66.6943 37.9134 69.6067 39.7709 72.0933 42.3818L73.5415 41.0025C70.8339 38.1595 67.6431 36.1214 63.9788 34.9L63.3464 36.7974ZM72.0933 42.3818C74.4772 44.8849 75.7482 48.3222 75.8105 52.8087L77.8103 52.7809C77.7428 47.9178 76.3518 43.9533 73.5415 41.0025L72.0933 42.3818ZM75.8104 52.7948C75.8104 60.465 73.2184 66.003 68.1476 69.6075L69.3063 71.2377C75.0135 67.1808 77.8104 60.9669 77.8104 52.7948H75.8104ZM68.1429 69.6109C63.0413 73.2816 56.1265 75.1687 47.3009 75.1687V77.1687C56.3953 77.1687 63.7645 75.2251 69.311 71.2343L68.1429 69.6109ZM47.3009 75.1687C36.9397 75.1687 28.9964 73.4278 23.3701 70.0521L22.3412 71.7671C28.4019 75.4035 36.7554 77.1687 47.3009 77.1687V75.1687ZM23.3744 70.0546C17.988 66.7865 15.1878 60.9786 15.1878 52.3078H13.1878C13.1878 61.4272 16.1662 68.0205 22.3369 71.7645L23.3744 70.0546ZM14.1878 53.3078H34.5426V51.3078H14.1878V53.3078ZM33.5426 52.3078C33.5426 55.811 34.4494 58.5119 36.6175 59.9573L37.7269 58.2932C36.3889 57.4012 35.5426 55.5571 35.5426 52.3078H33.5426ZM36.6394 59.9714C38.6339 61.2273 41.5922 61.7809 45.353 61.7809V59.7809C41.7122 59.7809 39.2166 59.2307 37.705 58.279L36.6394 59.9714ZM45.353 61.7809C48.1413 61.7809 50.4982 61.4834 52.3893 60.853L51.7568 58.9557C50.1418 59.494 48.0187 59.7809 45.353 59.7809V61.7809ZM52.3791 60.8564C53.4312 60.5182 54.3075 59.9723 54.9157 59.1687C55.5271 58.3607 55.8 57.3814 55.8 56.3009H53.8C53.8 57.0383 53.6184 57.5685 53.3209 57.9618C53.02 58.3593 52.5328 58.7062 51.767 58.9523L52.3791 60.8564ZM55.8 56.3009C55.8 55.2636 55.4715 54.3279 54.8117 53.5404C54.1668 52.7706 53.2492 52.1935 52.1419 51.7648L51.4199 53.63C52.3253 53.9804 52.9172 54.3934 53.2787 54.8248C53.6253 55.2385 53.8 55.715 53.8 56.3009H55.8ZM52.1785 51.7798C50.1283 50.8914 46.8267 49.9986 42.338 49.0878L41.9403 51.0479C46.4115 51.9551 49.5378 52.8153 51.3833 53.6149L52.1785 51.7798ZM42.3487 49.09C36.9176 47.9262 32.4476 46.7349 28.9283 45.5192L28.2752 47.4095C31.8979 48.661 36.4528 49.872 41.9296 51.0456L42.3487 49.09ZM28.9435 45.5246C25.5308 44.2836 22.5489 42.2675 19.9914 39.4604L18.513 40.8074C21.2795 43.8438 24.5307 46.048 28.26 47.4041L28.9435 45.5246ZM19.9914 39.4604C17.5382 36.7679 16.2591 33.0709 16.2591 28.2522H14.2591C14.2591 33.4323 15.6421 37.6565 18.513 40.8074L19.9914 39.4604ZM16.2591 28.2522C16.2591 21.2186 18.9387 16.1763 24.2524 12.9392L23.2119 11.2312C17.2283 14.8764 14.2591 20.6121 14.2591 28.2522H16.2591ZM24.2552 12.9375C29.7711 9.55279 36.7834 7.82608 45.353 7.82608V5.82608C36.5221 5.82608 29.1205 7.60545 23.2092 11.2329L24.2552 12.9375ZM130.734 26.4017L130.259 27.2819L130.268 27.2867L130.734 26.4017ZM138.915 61.9496L139.724 61.3614L139.724 61.3614L138.915 61.9496ZM144.758 63.0209H145.758V62.0209H144.758V63.0209ZM144.758 74.2209L145.313 75.0529L145.758 74.7561V74.2209H144.758ZM143.2 74.9026L143.516 75.8513L143.538 75.8441L143.559 75.836L143.2 74.9026ZM139.791 75.6817L139.62 74.6965L139.599 74.7001L139.579 74.7046L139.791 75.6817ZM125.28 74.513L124.843 75.4123L124.857 75.4193L124.872 75.4259L125.28 74.513ZM120.313 69.7409L121.225 69.3293L120.698 68.1631L119.694 68.956L120.313 69.7409ZM112.035 74.4157L111.677 73.4818L111.677 73.4818L112.035 74.4157ZM87.2001 50.36L87.8984 51.0758L87.8987 51.0756L87.2001 50.36ZM98.8871 44.9061L98.6982 43.9241L98.6982 43.9241L98.8871 44.9061ZM118.755 43.4452V44.4452H119.755V43.4452H118.755ZM116.612 36.3356L116.006 37.1311L116.015 37.1378L116.024 37.1444L116.612 36.3356ZM105.997 35.8487L105.565 34.9466L105.557 34.9503L105.549 34.9543L105.997 35.8487ZM103.854 39.647V40.647H104.854V39.647H103.854ZM84.7653 39.647L83.7848 39.8431L83.9455 40.647H84.7653V39.647ZM91.5827 26.6939L91.0613 25.8406L91.056 25.8439L91.5827 26.6939ZM118.755 52.6H119.755V51.6H118.755V52.6ZM106.484 54.4504L106.894 55.3624L106.904 55.3577L106.484 54.4504ZM115.833 62.047L115.26 61.2277L115.253 61.2323L115.247 61.237L115.833 62.047ZM111.548 23.4087C119.301 23.4087 125.517 24.7237 130.259 27.2818L131.209 25.5216C126.082 22.7557 119.507 21.4087 111.548 21.4087V23.4087ZM130.268 27.2867C132.592 28.5097 134.293 30.0983 135.42 32.0409C136.549 33.9868 137.136 36.3465 137.136 39.16H139.136C139.136 36.0651 138.489 33.3442 137.15 31.0373C135.81 28.7272 133.811 26.8909 131.2 25.5168L130.268 27.2867ZM137.136 39.16V59.2226H139.136V39.16H137.136ZM137.136 59.2226C137.136 60.4843 137.434 61.614 138.106 62.5377L139.724 61.3614C139.357 60.8568 139.136 60.1684 139.136 59.2226H137.136ZM138.106 62.5377C138.849 63.5585 139.958 64.0209 141.252 64.0209V62.0209C140.469 62.0209 140.02 61.769 139.724 61.3614L138.106 62.5377ZM141.252 64.0209H144.758V62.0209H141.252V64.0209ZM143.758 63.0209V74.2209H145.758V63.0209H143.758ZM144.204 73.3888C144.205 73.3878 144.178 73.405 144.104 73.4421C144.035 73.4767 143.942 73.52 143.822 73.5725C143.582 73.6777 143.256 73.8096 142.841 73.9693L143.559 75.836C143.988 75.671 144.344 75.527 144.624 75.4049C144.883 75.2914 145.135 75.1718 145.313 75.0529L144.204 73.3888ZM142.884 73.9539C142.176 74.1899 141.098 74.4395 139.62 74.6965L139.963 76.667C141.472 76.4046 142.666 76.1348 143.516 75.8513L142.884 73.9539ZM139.579 74.7046C138.171 75.0106 136.525 75.1687 134.63 75.1687V77.1687C136.63 77.1687 138.425 77.0022 140.004 76.6589L139.579 74.7046ZM134.63 75.1687C130.953 75.1687 127.987 74.6286 125.688 73.6002L124.872 75.4259C127.508 76.605 130.775 77.1687 134.63 77.1687V75.1687ZM125.718 73.6138C123.48 72.525 122.018 71.0869 121.225 69.3293L119.402 70.1525C120.426 72.4203 122.276 74.1637 124.843 75.4123L125.718 73.6138ZM119.694 68.956C117.309 70.8388 114.638 72.3478 111.677 73.4818L112.393 75.3495C115.535 74.1461 118.383 72.5386 120.933 70.5258L119.694 68.956ZM111.677 73.4818C108.765 74.5973 105.32 75.1687 101.322 75.1687V77.1687C105.505 77.1687 109.202 76.5714 112.393 75.3495L111.677 73.4818ZM101.322 75.1687C95.3895 75.1687 91.1251 73.9842 88.3584 71.7827C85.6353 69.616 84.2071 66.3368 84.2071 61.7548H82.2071C82.2071 66.782 83.7979 70.7098 87.1131 73.3477C90.3847 75.9509 95.1777 77.1687 101.322 77.1687V75.1687ZM84.2071 61.7548C84.2071 56.9289 85.4886 53.4268 87.8984 51.0758L86.5018 49.6442C83.5876 52.4874 82.2071 56.5818 82.2071 61.7548H84.2071ZM87.8987 51.0756C90.444 48.5908 94.1377 46.8377 99.0759 45.8881L98.6982 43.9241C93.5077 44.9222 89.4102 46.8051 86.5016 49.6444L87.8987 51.0756ZM99.0759 45.8881C104.053 44.931 110.605 44.4452 118.755 44.4452V42.4452C110.543 42.4452 103.85 42.9334 98.6982 43.9241L99.0759 45.8881ZM119.755 43.4452V40.913H117.755V43.4452H119.755ZM119.755 40.913C119.755 38.6316 118.926 36.7822 117.2 35.5269L116.024 37.1444C117.155 37.9668 117.755 39.1689 117.755 40.913H119.755ZM117.218 35.5402C115.636 34.3348 113.619 33.7774 111.256 33.7774V35.7774C113.308 35.7774 114.861 36.2589 116.006 37.1311L117.218 35.5402ZM111.256 33.7774C109.125 33.7774 107.219 34.1555 105.565 34.9466L106.428 36.7508C107.761 36.1134 109.361 35.7774 111.256 35.7774V33.7774ZM105.549 34.9543C104.703 35.3776 104.015 35.954 103.543 36.7043C103.07 37.4562 102.854 38.3209 102.854 39.2574H104.854C104.854 38.6356 104.995 38.1531 105.236 37.7687C105.479 37.3828 105.862 37.034 106.444 36.7431L105.549 34.9543ZM102.854 39.2574V39.647H104.854V39.2574H102.854ZM103.854 38.647H84.7653V40.647H103.854V38.647ZM85.7459 39.4508C85.7001 39.2218 85.6679 38.8437 85.6679 38.2835H83.6679C83.6679 38.8919 83.7007 39.4229 83.7848 39.8431L85.7459 39.4508ZM85.6679 38.2835C85.6679 33.8045 87.754 30.2431 92.1095 27.5439L91.056 25.8439C86.1918 28.8583 83.6679 33.0233 83.6679 38.2835H85.6679ZM92.1042 27.5472C96.556 24.8266 103 23.4087 111.548 23.4087V21.4087C102.825 21.4087 95.959 22.8476 91.0613 25.8406L92.1042 27.5472ZM118.755 51.6C113.197 51.6 108.928 52.2157 106.063 53.5431L106.904 55.3577C109.364 54.2179 113.275 53.6 118.755 53.6V51.6ZM106.073 53.5385C103.291 54.7906 101.588 56.656 101.588 59.2226H103.588C103.588 57.7637 104.482 56.4477 106.894 55.3624L106.073 53.5385ZM101.588 59.2226C101.588 61.0973 102.242 62.6442 103.651 63.6804C105.003 64.6745 106.91 65.0922 109.211 65.0922V63.0922C107.096 63.0922 105.692 62.6983 104.836 62.0691C104.038 61.4822 103.588 60.5943 103.588 59.2226H101.588ZM109.211 65.0922C111.934 65.0922 114.351 64.3551 116.42 62.8569L115.247 61.237C113.55 62.4658 111.552 63.0922 109.211 63.0922V65.0922ZM116.407 62.8662C118.566 61.3544 119.755 59.384 119.755 56.9826H117.755C117.755 58.6068 116.996 60.0126 115.26 61.2277L116.407 62.8662ZM119.755 56.9826V52.6H117.755V56.9826H119.755ZM168.326 17.3443L167.507 16.7713L166.407 18.3443H168.326V17.3443ZM177.384 4.3913V3.3913H176.863L176.564 3.81825L177.384 4.3913ZM196.083 4.3913L196.977 3.94408L196.701 3.3913H196.083V4.3913ZM196.278 4.78086L196.908 5.55742L197.531 5.05165L197.172 4.33364L196.278 4.78086ZM180.792 17.3443V18.3443H181.147L181.422 18.1209L180.792 17.3443ZM187.123 67.2087L188.11 67.0483L187.723 64.6665L186.312 66.6239L187.123 67.2087ZM179.137 73.8313L179.569 74.7329L179.577 74.7292L179.137 73.8313ZM155.373 71.2017L154.631 71.8715L154.631 71.8715L155.373 71.2017ZM150.893 23.5774V22.5774H149.893V23.5774H150.893ZM170.274 23.5774H171.274V22.5774H170.274V23.5774ZM171.93 59.9043L171.153 60.5335L171.169 60.5539L171.186 60.5733L171.93 59.9043ZM182.643 59.5148L181.921 58.8229L181.921 58.8229L182.643 59.5148ZM184.883 23.5774V22.5774H183.883V23.5774H184.883ZM204.264 23.5774H205.264V22.5774H204.264V23.5774ZM204.264 75V76H205.264V75H204.264ZM188.389 75L187.402 75.1604L187.538 76H188.389V75ZM169.146 17.9174L178.203 4.96435L176.564 3.81825L167.507 16.7713L169.146 17.9174ZM177.384 5.3913H196.083V3.3913H177.384V5.3913ZM195.188 4.83852L195.383 5.22808L197.172 4.33364L196.977 3.94408L195.188 4.83852ZM195.648 4.0043L180.162 16.5678L181.422 18.1209L196.908 5.55742L195.648 4.0043ZM180.792 16.3443H168.326V18.3443H180.792V16.3443ZM186.312 66.6239C184.402 69.2731 181.871 71.3772 178.697 72.9334L179.577 74.7292C183.025 73.039 185.818 70.7281 187.934 67.7935L186.312 66.6239ZM178.704 72.9298C175.594 74.4226 172.301 75.1687 168.813 75.1687V77.1687C172.598 77.1687 176.187 76.3566 179.569 74.7328L178.704 72.9298ZM168.813 75.1687C163.022 75.1687 158.854 73.5683 156.116 70.532L154.631 71.8715C157.865 75.4578 162.658 77.1687 168.813 77.1687V75.1687ZM156.116 70.532C153.351 67.4663 151.893 62.9693 151.893 56.8852H149.893C149.893 63.2672 151.422 68.3146 154.631 71.8715L156.116 70.532ZM151.893 56.8852V23.5774H149.893V56.8852H151.893ZM150.893 24.5774H170.274V22.5774H150.893V24.5774ZM169.274 23.5774V54.5478H171.274V23.5774H169.274ZM169.274 54.5478C169.274 56.9239 169.871 58.9501 171.153 60.5335L172.707 59.2751C171.781 58.1317 171.274 56.5868 171.274 54.5478H169.274ZM171.186 60.5733C172.581 62.1225 174.497 62.8522 176.799 62.8522V60.8522C174.947 60.8522 173.616 60.2833 172.673 59.2354L171.186 60.5733ZM176.799 62.8522C179.44 62.8522 181.661 61.985 183.365 60.2067L181.921 58.8229C180.638 60.1611 178.963 60.8522 176.799 60.8522V62.8522ZM183.365 60.2067C185.047 58.4517 185.883 56.2839 185.883 53.7687H183.883C183.883 55.7984 183.226 57.4614 181.921 58.8229L183.365 60.2067ZM185.883 53.7687V23.5774H183.883V53.7687H185.883ZM184.883 24.5774H204.264V22.5774H184.883V24.5774ZM203.264 23.5774V75H205.264V23.5774H203.264ZM204.264 74H188.389V76H204.264V74ZM189.376 74.8396L188.11 67.0483L186.136 67.3691L187.402 75.1604L189.376 74.8396ZM253.446 75L252.47 75.2211L252.647 76H253.446V75ZM251.79 67.6957L252.765 67.4746L252.25 65.2025L250.958 67.141L251.79 67.6957ZM219.359 69.3513L218.589 69.9893L218.589 69.9893L219.359 69.3513ZM219.359 29.2261L220.124 29.8695L220.129 29.8641L219.359 29.2261ZM249.842 28.3496L249.111 29.0323L250.842 30.8844V28.3496H249.842ZM249.842 4.3913V3.3913H248.842V4.3913H249.842ZM269.223 4.3913H270.223V3.3913H269.223V4.3913ZM269.223 75V76H270.223V75H269.223ZM247.894 58.833L248.71 59.4118L248.71 59.4118L247.894 58.833ZM247.894 39.8417L247.07 40.4083L247.074 40.4144L247.079 40.4205L247.894 39.8417ZM254.421 74.7789L252.765 67.4746L250.815 67.9167L252.47 75.2211L254.421 74.7789ZM250.958 67.141C247.389 72.4946 242.257 75.1687 235.428 75.1687V77.1687C242.884 77.1687 248.659 74.1941 252.622 68.2504L250.958 67.141ZM235.428 75.1687C228.72 75.1687 223.67 72.9874 220.129 68.7133L218.589 69.9893C222.579 74.8051 228.242 77.1687 235.428 77.1687V75.1687ZM220.129 68.7133C216.571 64.4191 214.71 57.9669 214.71 49.1913H212.71C212.71 58.2059 214.615 65.1937 218.589 69.9893L220.129 68.7133ZM214.71 49.1913C214.71 40.4814 216.57 34.0974 220.124 29.8695L218.593 28.5826C214.615 33.3148 212.71 40.241 212.71 49.1913H214.71ZM220.129 29.8641C223.67 25.59 228.72 23.4087 235.428 23.4087V21.4087C228.242 21.4087 222.579 23.7723 218.589 28.5881L220.129 29.8641ZM235.428 23.4087C241.087 23.4087 245.618 25.2935 249.111 29.0323L250.573 27.6668C246.665 23.4844 241.586 21.4087 235.428 21.4087V23.4087ZM250.842 28.3496V4.3913H248.842V28.3496H250.842ZM249.842 5.3913H269.223V3.3913H249.842V5.3913ZM268.223 4.3913V75H270.223V4.3913H268.223ZM269.223 74H253.446V76H269.223V74ZM241.466 35.7252C238.468 35.7252 236.054 36.6315 234.417 38.5921C232.809 40.5182 232.091 43.2981 232.091 46.7565H234.091C234.091 43.5274 234.769 41.2917 235.952 39.874C237.107 38.4908 238.881 37.7252 241.466 37.7252V35.7252ZM232.091 46.7565V51.9183H234.091V46.7565H232.091ZM232.091 51.9183C232.091 55.346 232.81 58.1032 234.42 60.0133C236.058 61.956 238.471 62.8522 241.466 62.8522V60.8522C238.878 60.8522 237.103 60.0927 235.949 58.7241C234.768 57.3229 234.091 55.1131 234.091 51.9183H232.091ZM241.466 62.8522C244.589 62.8522 247.062 61.7332 248.71 59.4118L247.079 58.2543C245.869 59.9584 244.058 60.8522 241.466 60.8522V62.8522ZM248.71 59.4118C250.291 57.1838 251.037 54.3333 251.037 50.9443H249.037C249.037 54.0482 248.354 56.4568 247.079 58.2543L248.71 59.4118ZM251.037 50.9443V47.7304H249.037V50.9443H251.037ZM251.037 47.7304C251.037 44.3415 250.291 41.491 248.71 39.263L247.079 40.4205C248.354 42.218 249.037 44.6266 249.037 47.7304H251.037ZM248.718 39.2752C247.076 36.8867 244.602 35.7252 241.466 35.7252V37.7252C244.045 37.7252 245.855 38.6414 247.07 40.4083L248.718 39.2752ZM325.612 26.4017L325.137 27.2819L325.146 27.2867L325.612 26.4017ZM333.793 61.9496L334.601 61.3614L334.601 61.3614L333.793 61.9496ZM339.636 63.0209H340.636V62.0209H339.636V63.0209ZM339.636 74.2209L340.191 75.0529L340.636 74.7561V74.2209H339.636ZM338.078 74.9026L338.394 75.8513L338.416 75.8441L338.437 75.836L338.078 74.9026ZM334.669 75.6817L334.498 74.6965L334.477 74.7001L334.457 74.7046L334.669 75.6817ZM320.158 74.513L319.72 75.4123L319.735 75.4193L319.749 75.4259L320.158 74.513ZM315.191 69.7409L316.102 69.3293L315.576 68.1631L314.571 68.956L315.191 69.7409ZM306.913 74.4157L306.555 73.4818L306.555 73.4818L306.913 74.4157ZM282.078 50.36L282.776 51.0758L282.776 51.0756L282.078 50.36ZM293.765 44.9061L293.576 43.9241L293.576 43.9241L293.765 44.9061ZM313.633 43.4452V44.4452H314.633V43.4452H313.633ZM311.49 36.3356L310.884 37.1311L310.893 37.1378L310.902 37.1444L311.49 36.3356ZM300.874 35.8487L300.443 34.9466L300.435 34.9503L300.427 34.9543L300.874 35.8487ZM298.732 39.647V40.647H299.732V39.647H298.732ZM279.643 39.647L278.662 39.8431L278.823 40.647H279.643V39.647ZM286.46 26.6939L285.939 25.8406L285.934 25.8439L286.46 26.6939ZM313.633 52.6H314.633V51.6H313.633V52.6ZM301.361 54.4504L301.772 55.3624L301.782 55.3577L301.361 54.4504ZM310.711 62.047L310.137 61.2277L310.131 61.2323L310.124 61.237L310.711 62.047ZM306.426 23.4087C314.179 23.4087 320.395 24.7237 325.137 27.2818L326.087 25.5216C320.959 22.7557 314.385 21.4087 306.426 21.4087V23.4087ZM325.146 27.2867C327.47 28.5097 329.171 30.0983 330.298 32.0409C331.427 33.9868 332.013 36.3465 332.013 39.16H334.013C334.013 36.0651 333.366 33.3442 332.028 31.0373C330.688 28.7272 328.688 26.8909 326.078 25.5168L325.146 27.2867ZM332.013 39.16V59.2226H334.013V39.16H332.013ZM332.013 59.2226C332.013 60.4843 332.312 61.614 332.984 62.5377L334.601 61.3614C334.234 60.8568 334.013 60.1684 334.013 59.2226H332.013ZM332.984 62.5377C333.726 63.5585 334.835 64.0209 336.13 64.0209V62.0209C335.347 62.0209 334.898 61.769 334.601 61.3614L332.984 62.5377ZM336.13 64.0209H339.636V62.0209H336.13V64.0209ZM338.636 63.0209V74.2209H340.636V63.0209H338.636ZM339.081 73.3888C339.083 73.3878 339.056 73.405 338.982 73.4421C338.913 73.4767 338.82 73.52 338.7 73.5725C338.459 73.6777 338.134 73.8096 337.719 73.9693L338.437 75.836C338.866 75.671 339.222 75.527 339.501 75.4049C339.761 75.2914 340.012 75.1718 340.191 75.0529L339.081 73.3888ZM337.762 73.9539C337.054 74.1899 335.976 74.4395 334.498 74.6965L334.84 76.667C336.349 76.4046 337.544 76.1348 338.394 75.8513L337.762 73.9539ZM334.457 74.7046C333.049 75.0106 331.402 75.1687 329.507 75.1687V77.1687C331.508 77.1687 333.302 77.0022 334.882 76.6589L334.457 74.7046ZM329.507 75.1687C325.831 75.1687 322.865 74.6286 320.566 73.6002L319.749 75.4259C322.385 76.605 325.653 77.1687 329.507 77.1687V75.1687ZM320.595 73.6138C318.357 72.525 316.896 71.0869 316.102 69.3293L314.28 70.1525C315.304 72.4203 317.154 74.1637 319.72 75.4123L320.595 73.6138ZM314.571 68.956C312.186 70.8388 309.516 72.3478 306.555 73.4818L307.27 75.3495C310.412 74.1461 313.261 72.5386 315.811 70.5258L314.571 68.956ZM306.555 73.4818C303.642 74.5973 300.197 75.1687 296.2 75.1687V77.1687C300.383 77.1687 304.08 76.5714 307.27 75.3495L306.555 73.4818ZM296.2 75.1687C290.267 75.1687 286.003 73.9842 283.236 71.7827C280.513 69.616 279.085 66.3368 279.085 61.7548H277.085C277.085 66.782 278.676 70.7098 281.991 73.3477C285.262 75.9509 290.055 77.1687 296.2 77.1687V75.1687ZM279.085 61.7548C279.085 56.9289 280.366 53.4268 282.776 51.0758L281.38 49.6442C278.465 52.4874 277.085 56.5818 277.085 61.7548H279.085ZM282.776 51.0756C285.322 48.5908 289.015 46.8377 293.954 45.8881L293.576 43.9241C288.385 44.9222 284.288 46.8051 281.379 49.6444L282.776 51.0756ZM293.954 45.8881C298.931 44.931 305.483 44.4452 313.633 44.4452V42.4452C305.421 42.4452 298.728 42.9334 293.576 43.9241L293.954 45.8881ZM314.633 43.4452V40.913H312.633V43.4452H314.633ZM314.633 40.913C314.633 38.6316 313.804 36.7822 312.078 35.5269L310.902 37.1444C312.033 37.9668 312.633 39.1689 312.633 40.913H314.633ZM312.096 35.5402C310.514 34.3348 308.497 33.7774 306.133 33.7774V35.7774C308.186 35.7774 309.739 36.2589 310.884 37.1311L312.096 35.5402ZM306.133 33.7774C304.003 33.7774 302.097 34.1555 300.443 34.9466L301.306 36.7508C302.639 36.1134 304.238 35.7774 306.133 35.7774V33.7774ZM300.427 34.9543C299.581 35.3776 298.892 35.954 298.421 36.7043C297.948 37.4562 297.732 38.3209 297.732 39.2574H299.732C299.732 38.6356 299.872 38.1531 300.114 37.7687C300.357 37.3828 300.74 37.034 301.322 36.7431L300.427 34.9543ZM297.732 39.2574V39.647H299.732V39.2574H297.732ZM298.732 38.647H279.643V40.647H298.732V38.647ZM280.624 39.4508C280.578 39.2218 280.546 38.8437 280.546 38.2835H278.546C278.546 38.8919 278.578 39.4229 278.662 39.8431L280.624 39.4508ZM280.546 38.2835C280.546 33.8045 282.632 30.2431 286.987 27.5439L285.934 25.8439C281.069 28.8583 278.546 33.0233 278.546 38.2835H280.546ZM286.982 27.5472C291.434 24.8266 297.878 23.4087 306.426 23.4087V21.4087C297.703 21.4087 290.837 22.8476 285.939 25.8406L286.982 27.5472ZM313.633 51.6C308.074 51.6 303.805 52.2157 300.941 53.5431L301.782 55.3577C304.241 54.2179 308.153 53.6 313.633 53.6V51.6ZM300.951 53.5385C298.169 54.7906 296.466 56.656 296.466 59.2226H298.466C298.466 57.7637 299.36 56.4477 301.772 55.3624L300.951 53.5385ZM296.466 59.2226C296.466 61.0973 297.12 62.6442 298.529 63.6804C299.881 64.6745 301.788 65.0922 304.088 65.0922V63.0922C301.974 63.0922 300.569 62.6983 299.714 62.0691C298.916 61.4822 298.466 60.5943 298.466 59.2226H296.466ZM304.088 65.0922C306.811 65.0922 309.229 64.3551 311.297 62.8569L310.124 61.237C308.427 62.4658 306.43 63.0922 304.088 63.0922V65.0922ZM311.284 62.8662C313.444 61.3544 314.633 59.384 314.633 56.9826H312.633C312.633 58.6068 311.873 60.0126 310.137 61.2277L311.284 62.8662ZM314.633 56.9826V52.6H312.633V56.9826H314.633ZM357.984 75L357.049 75.3542L357.293 76H357.984V75ZM338.505 23.5774V22.5774H337.057L337.57 23.9316L338.505 23.5774ZM359.347 23.5774L360.306 23.2946L360.095 22.5774H359.347V23.5774ZM368.794 55.6191L367.835 55.9019L368.046 56.6191H368.794V55.6191ZM369.476 55.6191V56.6191H370.224L370.435 55.9019L369.476 55.6191ZM378.923 23.5774V22.5774H378.175L377.964 23.2946L378.923 23.5774ZM398.012 23.5774L398.946 23.9347L399.465 22.5774H398.012V23.5774ZM378.339 75V76H379.027L379.272 75.3573L378.339 75ZM358.919 74.6458L339.441 23.2232L337.57 23.9316L357.049 75.3542L358.919 74.6458ZM338.505 24.5774H359.347V22.5774H338.505V24.5774ZM358.388 23.8602L367.835 55.9019L369.753 55.3363L360.306 23.2946L358.388 23.8602ZM368.794 56.6191H369.476V54.6191H368.794V56.6191ZM370.435 55.9019L379.882 23.8602L377.964 23.2946L368.517 55.3363L370.435 55.9019ZM378.923 24.5774H398.012V22.5774H378.923V24.5774ZM397.078 23.2201L377.405 74.6427L379.272 75.3573L398.946 23.9347L397.078 23.2201ZM378.339 74H357.984V76H378.339V74ZM449.43 29.0313L448.764 29.7766L448.768 29.7809L449.43 29.0313ZM456.93 52.6V53.6H457.93V52.6H456.93ZM418.363 52.6V51.6H417.363V52.6H418.363ZM420.797 60.9757L420.04 61.6286L420.046 61.636L420.053 61.6432L420.797 60.9757ZM435.796 61.7548L435.137 61.0022L435.129 61.0092L435.121 61.0163L435.796 61.7548ZM438.133 56.3009V55.3009H437.133V56.3009H438.133ZM456.93 56.3009H457.93V55.3009H456.93V56.3009ZM449.82 70.9096L449.225 70.1056L449.225 70.1056L449.82 70.9096ZM406.87 69.5461L406.222 70.3073L406.227 70.312L406.87 69.5461ZM406.676 29.2261L406.012 28.4776L406.012 28.4776L406.676 29.2261ZM418.46 43.4452L417.467 43.3226L417.329 44.4452H418.46V43.4452ZM437.354 43.4452V44.4452H438.354V43.4452H437.354ZM435.016 37.1148L434.294 37.8067L434.302 37.8144L434.309 37.8219L435.016 37.1148ZM427.907 23.4087C437.178 23.4087 444.077 25.5832 448.764 29.7765L450.097 28.2861C444.915 23.6492 437.464 21.4087 427.907 21.4087V23.4087ZM448.768 29.7809C453.483 33.9443 455.93 40.3768 455.93 49.2887H457.93C457.93 40.0209 455.377 32.9484 450.092 28.2817L448.768 29.7809ZM455.93 49.2887V52.6H457.93V49.2887H455.93ZM456.93 51.6H418.363V53.6H456.93V51.6ZM417.363 52.6C417.363 56.4269 418.199 59.4934 420.04 61.6286L421.555 60.3227C420.149 58.6921 419.363 56.1748 419.363 52.6H417.363ZM420.053 61.6432C421.998 63.8133 424.951 64.8 428.686 64.8V62.8C425.279 62.8 422.973 61.9038 421.542 60.3081L420.053 61.6432ZM428.686 64.8C432.039 64.8 434.708 64.1015 436.47 62.4933L435.121 61.0163C433.896 62.135 431.826 62.8 428.686 62.8V64.8ZM436.454 62.5074C438.252 60.9341 439.133 58.8301 439.133 56.3009H437.133C437.133 58.3166 436.456 59.8485 435.137 61.0022L436.454 62.5074ZM438.133 57.3009H456.93V55.3009H438.133V57.3009ZM455.93 56.3009C455.93 62.2381 453.693 66.8004 449.225 70.1056L450.415 71.7135C455.426 68.0066 457.93 62.8298 457.93 56.3009H455.93ZM449.225 70.1056C444.728 73.4321 438.06 75.1687 429.076 75.1687V77.1687C438.271 77.1687 445.432 75.3992 450.415 71.7135L449.225 70.1056ZM429.076 75.1687C419.675 75.1687 412.533 72.9944 407.513 68.7802L406.227 70.312C411.726 74.928 419.387 77.1687 429.076 77.1687V75.1687ZM407.519 68.7848C402.547 64.5493 399.982 58.1165 399.982 49.2887H397.982C397.982 58.5107 400.676 65.5829 406.222 70.3073L407.519 68.7848ZM399.982 49.2887C399.982 40.6567 402.482 34.2782 407.339 29.9745L406.012 28.4776C400.611 33.2638 397.982 40.2604 397.982 49.2887H399.982ZM407.339 29.9745C412.234 25.6373 419.047 23.4087 427.907 23.4087V21.4087C418.717 21.4087 411.376 23.725 406.012 28.4776L407.339 29.9745ZM428.686 33.7774C425.484 33.7774 422.847 34.5358 420.906 36.1815C418.957 37.8329 417.846 40.2617 417.467 43.3226L419.452 43.5679C419.788 40.8501 420.738 38.945 422.199 37.7072C423.666 36.4636 425.785 35.7774 428.686 35.7774V33.7774ZM418.46 44.4452H437.354V42.4452H418.46V44.4452ZM438.354 43.4452C438.354 40.5769 437.507 38.1914 435.724 36.4077L434.309 37.8219C435.642 39.1547 436.354 40.9895 436.354 43.4452H438.354ZM435.738 36.4229C434.01 34.6189 431.609 33.7774 428.686 33.7774V35.7774C431.216 35.7774 433.037 36.4941 434.294 37.8067L435.738 36.4229ZM466.96 75H465.96V76H466.96V75ZM466.96 4.3913V3.3913H465.96V4.3913H466.96ZM486.341 4.3913H487.341V3.3913H486.341V4.3913ZM486.341 75V76H487.341V75H486.341ZM467.96 75V4.3913H465.96V75H467.96ZM466.96 5.3913H486.341V3.3913H466.96V5.3913ZM485.341 4.3913V75H487.341V4.3913H485.341ZM486.341 74H466.96V76H486.341V74ZM502.801 51.0417L501.808 51.1652L501.918 52.0417H502.801V51.0417ZM497.444 7.99478V6.99478H496.312L496.452 8.11826L497.444 7.99478ZM520.721 7.99478L521.713 8.12268L521.858 6.99478H520.721V7.99478ZM515.169 51.0417V52.0417H516.049L516.161 51.1696L515.169 51.0417ZM499.392 75H498.392V76H499.392V75ZM499.392 56.9826V55.9826H498.392V56.9826H499.392ZM518.676 56.9826H519.676V55.9826H518.676V56.9826ZM518.676 75V76H519.676V75H518.676ZM503.793 50.9183L498.437 7.87129L496.452 8.11826L501.808 51.1652L503.793 50.9183ZM497.444 8.99478H520.721V6.99478H497.444V8.99478ZM519.729 7.86688L514.178 50.9138L516.161 51.1696L521.713 8.12268L519.729 7.86688ZM515.169 50.0417H502.801V52.0417H515.169V50.0417ZM500.392 75V56.9826H498.392V75H500.392ZM499.392 57.9826H518.676V55.9826H499.392V57.9826ZM517.676 56.9826V75H519.676V56.9826H517.676ZM518.676 74H499.392V76H518.676V74Z" fill="black" mask="url(#path-2-outside-1_2096_2)"/>
</svg>
